<?xml version="1.0" encoding="UTF-8"?>
<svg id="Layer_1" data-name="Layer 1" xmlns="http://www.w3.org/2000/svg" viewBox="0 0 897.37 252.06">
  <path d="m199.35,171.28c-3.92-2.41-6.3-6.68-6.3-11.28V0h-2.05c-11.39,8.12-25.04,12.49-39.03,12.49h-9.73v4.4h9.7c5.32,0,9.63,4.31,9.63,9.63v133.48c0,4.6-2.39,8.87-6.3,11.28h0c-2.09,1.29-4.49,1.97-6.95,1.97h-6.08v4.71h70.13v-4.71h-6.08c-2.45,0-4.86-.68-6.95-1.97Z"/>
  <path d="m439.21,160.68c-3.5,1.13-7.37,1.83-11.79,1.83l-.21.16c-40.74.5-59.04-56.66-37.48-94.89,9.24-16.39,23.47-17.21,31.18-14.35,7.91,2.94,7.79,14.33,7.79,14.33v21.69c0,23.46-34.56,35.13-34.56,35.13v2.63s32.96-9.87,45.06-17.03c11.22-6.64,17.91-12.68,17.91-32.91-.29-23.94-29.02-33.65-53.17-28.02-74.27,19.83-75.45,126.65.85,130.75,0,0,0,0,.01,0,.26.02,36.66,2.95,55.69-31.78l.36-5.2-.36-.13s-6.38,12.93-21.29,17.8Z"/>
  <path d="m647.86,171.28c-3.92-2.41-6.3-6.68-6.3-11.28V49.03h-2.05c-11.39,8.12-25.04,12.49-39.03,12.49h-7.58v4.4h9.96c3.99,0,7.22,3.23,7.22,7.22v86.86c0,4.6-2.39,8.87-6.3,11.28-2.09,1.29-4.49,1.97-6.95,1.97h-6.08v4.71h70.13v-4.71h-6.08c-2.45,0-4.86-.68-6.95-1.97Z"/>
  <path d="m756.39,160.68c-3.5,1.13-7.37,1.83-11.79,1.83l-.21.16c-40.74.5-58.82-50-37.27-88.24,9.24-16.39,23.26-23.86,30.97-21,7.91,2.94,7.79,14.33,7.79,14.33v21.69c0,23.46-34.56,35.13-34.56,35.13v2.63s32.96-9.87,45.06-17.03c11.22-6.64,17.91-12.68,17.91-32.91-.29-23.94-29.01-33.65-53.17-28.02-74.27,19.83-75.45,126.65.85,130.75,0,0,0,0,.01,0,.26.02,36.66,2.95,55.69-31.78l.36-5.2-.36-.13s-6.38,12.93-21.29,17.8Z"/>
  <path d="m626.94,34.85c13.31-9.67,14.29-34.85,14.29-34.85h-2.71c-5.73,16.66-19.28,9.41-28.83,14.07-10.23,4.99-8.58,13.52-6.58,17.73,2.86,6.02,12.62,11.2,23.83,3.05Z"/>
  <path d="m563.52,159.83c-61.52,12.66-81.05-99.54-40.54-107.73,4.72-.95,9.71-.47,13.68,2.26,9.04,6.23,4.91,17.44,9.24,25.36,5.45,9.99,13.9,7.94,18.01,5.75,5.15-2.75,10.29-11.53,4.91-20.25-2.83-6.06-7.06-10.12-14.05-13.18-41.82-18.31-78.26,16.45-80.75,59.96-1.21,37.5,27.24,65.08,57.4,66.7,0,0,36.61,3.11,55.7-32.1l.33-5.23-.33-.16s-7.05,14.35-23.6,18.61Z"/>
  <path d="m334.96,173.28l-1.47-.63c-3.36-1.44-5.89-4.31-6.89-7.83l-.23-.82c-.75-2.66-1.14-5.4-1.14-8.16V61.99s-1.13-14.54-22.2-14.54c-6.86,0-12.34.47-17.99,1.38h.03s-42.27,6.13-51.94,19.43c-8.14,11.21-2.97,20.97,3.05,23.83,4.21,2,12.74,3.65,17.73-6.58,4.66-9.55,2.87-24.44,19.53-30.17,11.42-3.14,19.72-1.17,19.72,14.01v87.38c-5.47,4.8-17.82,14.62-27.18,14.62-6.19,0-9.84-3.95-11.94-7.9-1.85-3.48-2.66-5.77-2.66-9.7v-12.58c0-26.76,30.24-37.59,30.24-37.59v-3s-28.44,7.6-42.44,15.4c-14,7.8-20.2,22-20.2,34.41s10,28.81,34.61,28.81c19.5,0,34.69-12.16,40.17-17.22,3.18,14.51,19.65,19.38,28.07,19.38,9.34,0,22.74-3.4,22.74-3.4v-3.18h-2.25c-2.53,0-5.03-.51-7.36-1.51Z"/>
  <path d="m882.04,47.97c-16.24-2.57-33.96,13.76-33.96,13.76-5.26,4.18-8.81,10.46-8.81,10.46v-23.16h-2.05c-11.39,8.12-25.04,12.49-39.03,12.49h-7.58v4.4h9.96c3.99,0,7.22,3.23,7.22,7.22v86.69c0,2.09-.4,4.2-1.35,6.06-2.41,4.72-7.06,7.36-11.9,7.36h-6.08v4.71h70.13v-4.71h-6.08c-4.84,0-9.49-2.65-11.89-7.36-.95-1.86-1.35-3.97-1.35-6.06v-79.45s6.54-13.73,13.85-17.5c11.76-5.4,17.26,8.84,26.43,11.99,10.76,3.7,15.62-3.49,17.18-7.89,2.24-6.28-1.01-16.84-14.69-19.01Z"/>
  <path d="m103.46,40.63c9.66-.17,14.12,8.72,22.19,11.5,10.76,3.7,15.62-3.49,17.18-7.89,2.24-6.28-1.01-16.84-14.69-19.01-9.82-1.56-18.65,1.95-25.31,6.43h0c-8.91,5.38-13.26,12.48-15.36,18.5-3.82-1.04-6.7-1.47-6.7-1.47-.46-.09-1.13-.17-1.88-.25-2.44-.33-4.9-.52-7.39-.55-.31-.02-.53-.03-.53-.03l.13.04c-5.71-.03-11.51.71-17.26,2.38C21.43,59.7,2.82,93.75,12.28,126.34c2.5,8.61,6.74,16.22,12.18,22.64l-.03.04s1.66,2.92.53,5.2c-1.13,2.27-4.09,4-7.78,7.34-3.69,3.34-9.47,8.2-9.47,12.83s3.63,11.16,14.99,18.6v.51S0,200.48,0,215.23s16.52,36.83,65.02,36.83,72.99-17.07,72.99-35.55-13-27.5-32.5-30.84-34.64-5.12-55.03-6.35-34.37-7.85-27.49-15.8c6.88-7.95,14.09-3.2,14.09-3.2l.02-.02c14.5,9.74,32.99,13.25,51.01,8.02,32.42-9.41,51.02-43.46,41.56-76.06-4.86-16.73-16.18-29.78-30.42-37.29-2.36-1.47-5.05-2.63-7.64-3.54,1.85-5.74,5.91-10.71,11.85-10.81ZM35.53,198.39h1s1.76,1.01,8.35,2.83c6.59,1.83,46.51,8.31,46.51,8.31,0,0,31.25,3.97,31.25,17.44s-22.52,15.53-37.79,15.68c-15.27.15-29.09-4.41-34.47-6.36-5.38-1.95-20.31-8.59-21.8-19.88-1.48-11.28,6.94-18.03,6.94-18.03Zm51.08-35.19c-15.49,4.5-35.05-15.99-43.69-45.75-8.64-29.76-3.08-57.54,12.41-62.04,15.49-4.5,35.05,15.99,43.69,45.75,8.64,29.77,3.08,57.54-12.41,62.04Z"/>
</svg>